<?xml version="1.0" encoding="utf-8"?>
<!-- Generator: Adobe Illustrator 19.0.0, SVG Export Plug-In . SVG Version: 6.00 Build 0)  -->
<svg version="1.1" id="Layer_1" xmlns="http://www.w3.org/2000/svg" xmlns:xlink="http://www.w3.org/1999/xlink" x="0px" y="0px"
	 viewBox="0 0 189 205" style="enable-background:new 0 0 189 205;" xml:space="preserve">
<style type="text/css">
	.st0{fill:#E7E7E7;}
</style>
<path id="XMLID_54_" class="st0" d="M32.8,186.9c16.6,10.2,42,17.1,63.3,16.6c21.9,0.2,46.3-6.7,62.3-16.6
	c10.3-5.9,20.1-13.4,28.9-22.8c0-0.4,0.1-0.8,0.1-1.2c1-8.2-3.6-12.7-10.1-15.9c-15.8-7.6-31.7-15-47.5-22.5
	c-1.4-0.7-2.8-1.5-4.6-2.4c13-10.7,18.6-25.1,20.4-40.6c1.6-13.9,1.1-28,0.9-42c0-3.6-1.6-7.5-3.5-10.7
	C131.8,10.7,114.9,1.4,94.1,1.1C76.5,0.9,61.8,8.8,50.3,22.2c-5.5,6.4-8.5,13.8-8.1,22.5c0.2,6.3,0.1,12.5,0,18.8
	c-0.3,22.3,5,42.5,21.7,58.9c-1.3,0.6-2.5,1.3-3.7,1.8c-14.2,6.8-28.5,13.4-42.7,20.3c-3.9,1.9-7.7,4-11.3,6.4
	c-3.4,2.2-5,5.5-4.8,9.8c0,0.3,0,0.7,0,1C9.8,170.6,20.2,179.6,32.8,186.9z"/>
</svg>
