<?xml version="1.0" encoding="utf-8"?>
<!-- Generator: Adobe Illustrator 19.0.0, SVG Export Plug-In . SVG Version: 6.00 Build 0)  -->
<svg version="1.1" id="Layer_1" xmlns="http://www.w3.org/2000/svg" xmlns:xlink="http://www.w3.org/1999/xlink" x="0px" y="0px"
	 viewBox="0 0 522 137" style="enable-background:new 0 0 522 137;" xml:space="preserve">
<style type="text/css">
	.st0{fill:#FFFFFF;}
	.st1{fill:#FDFEFF;}
	.st2{font-family:'FiraSans-Regular';}
	.st3{font-size:7.4053px;}
	.st4{font-family:'FiraSans-Light';}
</style>
<path id="XMLID_108_" class="st0" d="M46,17.5l50,0.5L124.2,46v20.6l-53,52.8l-53.3-53L18.1,46L46,17.5 M43.5,11.5l-31.4,32
	l-0.3,25.3l59.3,59l59-58.7V43.5L98.5,12.1L43.5,11.5L43.5,11.5z"/>
<g id="XMLID_102_">
	<g id="XMLID_105_">
		<polygon id="XMLID_38_" class="st1" points="93,46.4 85.3,46.4 80,51.6 80.6,58.4 71,64.3 62.1,58.4 62.6,51.6 57.1,46.3 
			49.1,46.3 59.6,56.9 52.4,64 64.9,76.5 71,70.1 77.6,76.5 90.1,64 83.1,56.6 		"/>
		<polygon id="XMLID_37_" class="st1" points="70.6,39.6 70.5,39.5 70.5,39.5 		"/>
	</g>
	<polygon id="XMLID_36_" class="st1" points="41.9,39.2 55,39.2 59.2,35.2 71,45.8 82.6,35.1 87.3,39.2 100.3,39.2 95.7,43.9 
		78.8,43.9 76.6,46.2 77.6,54.8 71.3,58.3 65,55.2 66.1,46.5 63.3,43.8 46.8,43.9 	"/>
	<polygon id="XMLID_35_" class="st1" points="58.6,86.1 68.1,76.6 74.6,76.6 83.9,85.9 71.3,98.7 	"/>
</g>
<g id="XMLID_84_">
	<path id="XMLID_100_" class="st1" d="M161.6,24.4h31.6v6.4h-24.1v19.5h22.2v6.3h-22.2v26.6h-7.6V24.4z"/>
	<path id="XMLID_98_" class="st1" d="M236.3,83.1l-7.5-13c-3.1-5-5-8.2-6.8-11.6h-0.2c-1.7,3.4-3.3,6.5-6.4,11.7l-7.1,12.9h-8.7
		l18-29.7l-17.3-29h8.8l7.8,13.8c2.2,3.8,3.8,6.8,5.4,9.9h0.3c1.7-3.5,3.1-6.2,5.3-9.9l8-13.8h8.7L226.8,53l18.3,30.2H236.3z"/>
	<path id="XMLID_96_" class="st1" d="M298.6,80.5c-3.4,1.2-10.1,3.2-18,3.2c-8.9,0-16.2-2.3-22-7.8c-5.1-4.9-8.2-12.7-8.2-21.9
		c0.1-17.5,12.1-30.3,31.8-30.3c6.8,0,12.1,1.5,14.6,2.7l-1.8,6.2c-3.1-1.4-7.1-2.5-13-2.5c-14.3,0-23.6,8.9-23.6,23.6
		c0,14.9,9,23.7,22.7,23.7c5,0,8.4-0.7,10.1-1.6V58.4h-11.9v-6.1h19.4V80.5z"/>
	<path id="XMLID_94_" class="st1" d="M310.2,24.4h7.6v52.4h25.1v6.4h-32.7V24.4z"/>
	<path id="XMLID_91_" class="st1" d="M401.5,53.1c0,20.2-12.3,30.9-27.3,30.9c-15.5,0-26.4-12-26.4-29.8c0-18.7,11.6-30.9,27.3-30.9
		C391.2,23.4,401.5,35.7,401.5,53.1z M356,54.1c0,12.6,6.8,23.8,18.7,23.8c12,0,18.8-11.1,18.8-24.4c0-11.7-6.1-23.9-18.7-23.9
		C362.2,29.6,356,41.2,356,54.1z"/>
	<path id="XMLID_87_" class="st1" d="M411.4,25.2c3.3-0.7,8.5-1.2,13.9-1.2c7.6,0,12.5,1.3,16.1,4.3c3.1,2.3,4.9,5.8,4.9,10.4
		c0,5.7-3.7,10.6-9.9,12.9v0.2c5.6,1.4,12.1,6,12.1,14.7c0,5.1-2,8.9-5,11.8c-4.1,3.7-10.7,5.5-20.3,5.5c-5.2,0-9.2-0.3-11.8-0.7
		V25.2z M419,49.2h6.9c8,0,12.7-4.2,12.7-9.9c0-6.9-5.2-9.6-12.9-9.6c-3.5,0-5.5,0.3-6.7,0.5V49.2z M419,77.4
		c1.5,0.3,3.7,0.3,6.4,0.3c7.8,0,15.1-2.9,15.1-11.4c0-8-6.9-11.3-15.2-11.3H419V77.4z"/>
	<path id="XMLID_85_" class="st1" d="M489.1,55.6h-22.8v21.2h25.5v6.4h-33V24.4h31.7v6.4h-24.1v18.6h22.8V55.6z"/>
</g>
<g id="XMLID_43_">
	<path id="XMLID_80_" class="st1" d="M160.3,97.6c0.9-0.2,2.4-0.3,3.9-0.3c2.1,0,3.5,0.4,4.5,1.2c0.9,0.6,1.4,1.6,1.4,2.9
		c0,1.6-1.1,3-2.8,3.6v0c1.6,0.4,3.4,1.7,3.4,4.1c0,1.4-0.6,2.5-1.4,3.3c-1.1,1.1-3,1.5-5.7,1.5c-1.5,0-2.6-0.1-3.3-0.2V97.6z
		 M162.5,104.4h1.9c2.2,0,3.6-1.2,3.6-2.8c0-1.9-1.5-2.7-3.6-2.7c-1,0-1.5,0.1-1.9,0.1V104.4z M162.5,112.3c0.4,0.1,1,0.1,1.8,0.1
		c2.2,0,4.2-0.8,4.2-3.2c0-2.2-1.9-3.2-4.3-3.2h-1.8V112.3z"/>
	<path id="XMLID_78_" class="st1" d="M188.6,106.1h-6.4v5.9h7.1v1.8h-9.3V97.4h8.9v1.8h-6.8v5.2h6.4V106.1z"/>
	<path id="XMLID_75_" class="st1" d="M201.3,108.7l-1.7,5.2h-2.2l5.6-16.5h2.6l5.6,16.5h-2.3l-1.8-5.2H201.3z M206.7,107l-1.6-4.7
		c-0.4-1.1-0.6-2.1-0.9-3h0c-0.2,1-0.5,2-0.8,3l-1.6,4.8H206.7z"/>
	<path id="XMLID_72_" class="st1" d="M220,97.6c1.1-0.2,2.6-0.3,4.1-0.3c2.3,0,3.7,0.4,4.8,1.3c0.8,0.7,1.3,1.9,1.3,3.1
		c0,2.2-1.4,3.6-3.1,4.2v0.1c1.3,0.4,2,1.6,2.4,3.3c0.5,2.3,0.9,3.9,1.3,4.5h-2.2c-0.3-0.5-0.6-1.9-1.1-3.9
		c-0.5-2.3-1.4-3.1-3.3-3.2h-2v7.1H220V97.6z M222.2,105.1h2.2c2.3,0,3.7-1.2,3.7-3.1c0-2.1-1.5-3.1-3.8-3.1c-1,0-1.8,0.1-2.1,0.2
		V105.1z"/>
	<path id="XMLID_70_" class="st1" d="M239.4,111.3c1,0.6,2.3,1.1,3.8,1.1c2.2,0,3.4-1.1,3.4-2.8c0-1.5-0.9-2.4-3.1-3.3
		c-2.7-1-4.4-2.3-4.4-4.7c0-2.6,2.1-4.5,5.3-4.5c1.7,0,2.9,0.4,3.6,0.8l-0.6,1.7c-0.5-0.3-1.6-0.8-3.1-0.8c-2.2,0-3.1,1.3-3.1,2.5
		c0,1.5,1,2.3,3.3,3.2c2.8,1.1,4.2,2.4,4.2,4.8c0,2.5-1.9,4.7-5.8,4.7c-1.6,0-3.3-0.5-4.2-1.1L239.4,111.3z"/>
	<path id="XMLID_68_" class="st1" d="M259.1,111.1c0-2,1.3-3.3,3.2-3.3c1.9,0,3.1,1.4,3.1,3.3c0,1.9-1.2,3.3-3.2,3.3
		C260.4,114.5,259.1,113,259.1,111.1z"/>
	<path id="XMLID_64_" class="st1" d="M283.2,97.6c0.9-0.2,2.4-0.3,3.9-0.3c2.1,0,3.5,0.4,4.5,1.2c0.9,0.6,1.4,1.6,1.4,2.9
		c0,1.6-1.1,3-2.8,3.6v0c1.6,0.4,3.4,1.7,3.4,4.1c0,1.4-0.6,2.5-1.4,3.3c-1.1,1.1-3,1.5-5.7,1.5c-1.5,0-2.6-0.1-3.3-0.2V97.6z
		 M285.3,104.4h1.9c2.2,0,3.6-1.2,3.6-2.8c0-1.9-1.5-2.7-3.6-2.7c-1,0-1.5,0.1-1.9,0.1V104.4z M285.3,112.3c0.4,0.1,1,0.1,1.8,0.1
		c2.2,0,4.2-0.8,4.2-3.2c0-2.2-1.9-3.2-4.3-3.2h-1.8V112.3z"/>
	<path id="XMLID_62_" class="st1" d="M305,97.4v9.8c0,3.7,1.6,5.3,3.8,5.3c2.4,0,4-1.6,4-5.3v-9.8h2.2v9.6c0,5.1-2.7,7.1-6.2,7.1
		c-3.4,0-5.9-1.9-5.9-7v-9.7H305z"/>
	<path id="XMLID_60_" class="st1" d="M325.2,97.4h2.1v14.7h7v1.8h-9.2V97.4z"/>
	<path id="XMLID_58_" class="st1" d="M343.2,97.4h2.1v14.7h7v1.8h-9.2V97.4z"/>
	<path id="XMLID_56_" class="st1" d="M361,111.3c1,0.6,2.3,1.1,3.8,1.1c2.2,0,3.4-1.1,3.4-2.8c0-1.5-0.9-2.4-3.1-3.3
		c-2.7-1-4.4-2.3-4.4-4.7c0-2.6,2.1-4.5,5.3-4.5c1.7,0,2.9,0.4,3.6,0.8l-0.6,1.7c-0.5-0.3-1.6-0.8-3.1-0.8c-2.2,0-3.1,1.3-3.1,2.5
		c0,1.5,1,2.3,3.3,3.2c2.8,1.1,4.2,2.4,4.2,4.8c0,2.5-1.9,4.7-5.8,4.7c-1.6,0-3.3-0.5-4.2-1.1L361,111.3z"/>
	<path id="XMLID_54_" class="st1" d="M380.7,111.1c0-2,1.3-3.3,3.2-3.3c1.9,0,3.1,1.4,3.1,3.3c0,1.9-1.2,3.3-3.2,3.3
		C382,114.5,380.7,113,380.7,111.1z"/>
	<path id="XMLID_52_" class="st1" d="M404.8,97.4h2.1v7.9h0.1c0.4-0.6,0.9-1.2,1.3-1.8l5-6.2h2.6l-6,7l6.4,9.5h-2.5l-5.4-8.1
		l-1.6,1.8v6.3h-2.1V97.4z"/>
	<path id="XMLID_50_" class="st1" d="M426.6,97.4v16.5h-2.1V97.4H426.6z"/>
	<path id="XMLID_48_" class="st1" d="M436.8,113.9V97.4h2.3l5.3,8.3c1.2,1.9,2.2,3.7,3,5.4l0,0c-0.2-2.2-0.2-4.2-0.2-6.8v-6.9h2
		v16.5h-2.2l-5.2-8.4c-1.1-1.8-2.2-3.7-3.1-5.5l-0.1,0c0.1,2.1,0.2,4.1,0.2,6.8v7H436.8z"/>
	<path id="XMLID_46_" class="st1" d="M471.9,113.1c-1,0.3-2.8,0.9-5.1,0.9c-2.5,0-4.5-0.6-6.2-2.2c-1.4-1.4-2.3-3.6-2.3-6.1
		c0-4.9,3.4-8.5,8.9-8.5c1.9,0,3.4,0.4,4.1,0.8l-0.5,1.7c-0.9-0.4-2-0.7-3.6-0.7c-4,0-6.6,2.5-6.6,6.6c0,4.2,2.5,6.7,6.4,6.7
		c1.4,0,2.3-0.2,2.8-0.4v-4.9h-3.4v-1.7h5.4V113.1z"/>
	<path id="XMLID_44_" class="st1" d="M481.4,111.3c1,0.6,2.3,1.1,3.8,1.1c2.2,0,3.4-1.1,3.4-2.8c0-1.5-0.9-2.4-3.1-3.3
		c-2.7-1-4.4-2.3-4.4-4.7c0-2.6,2.1-4.5,5.3-4.5c1.7,0,2.9,0.4,3.6,0.8l-0.6,1.7c-0.5-0.3-1.6-0.8-3.1-0.8c-2.2,0-3.1,1.3-3.1,2.5
		c0,1.5,1,2.3,3.3,3.2c2.8,1.1,4.2,2.4,4.2,4.8c0,2.5-1.9,4.7-5.8,4.7c-1.6,0-3.3-0.5-4.2-1.1L481.4,111.3z"/>
</g>
<text id="XMLID_1_" transform="matrix(1 0 0 1 497.1115 23.391)"><tspan x="0" y="0" class="st1 st2 st3">tm</tspan><tspan x="9.7" y="0" class="st1 st4 st3">.</tspan></text>
</svg>
